<svg width="466" height="682" xmlns="http://www.w3.org/2000/svg" xmlns:xlink="http://www.w3.org/1999/xlink" overflow="hidden"><defs><clipPath id="clip0"><path d="M407 19 873 19 873 701 407 701Z" fill-rule="evenodd" clip-rule="evenodd"/></clipPath><clipPath id="clip1"><path d="M408 19 872 19 872 700 408 700Z" fill-rule="evenodd" clip-rule="evenodd"/></clipPath><clipPath id="clip2"><path d="M408 19 872 19 872 700 408 700Z" fill-rule="evenodd" clip-rule="evenodd"/></clipPath><clipPath id="clip3"><path d="M300 19 980 19 980 700 300 700Z" fill-rule="evenodd" clip-rule="evenodd"/></clipPath></defs><g clip-path="url(#clip0)" transform="translate(-407 -19)"><g clip-path="url(#clip1)"><g clip-path="url(#clip2)"><g clip-path="url(#clip3)"><path d="M248.857 169.927C240.089 163.961 228.068 166.108 220.774 173.807L183.794 212.847C176.988 220.032 164.905 216.499 163.037 206.777L157.533 178.082C154.306 161.252 159.38 143.894 171.167 131.448L192.261 109.181C199.918 101.098 201.075 88.2214 193.797 79.7962 185.423 70.0998 170.762 69.9442 162.181 79.018L157.413 84.0503C151.188 90.6235 140.137 87.3913 138.436 78.5044L135.064 60.9223C128.662 27.5429 101.684 4.32158 77.2385 11.1386 52.7928 17.9608 41.732 51.7967 53.5347 83.6664L59.7498 100.455C62.8938 108.942 55.1118 117.425 46.3856 115.022L40.793 113.487C30.5675 110.675 19.1747 115.059 14.7598 124.698 9.13083 136.988 15.9478 150.814 28.4145 154.244L59.1532 162.7C75.6769 167.245 89.0048 179.467 94.9554 195.54L105.103 222.937C108.543 232.219 100.029 241.5 90.4834 238.875L38.64 224.618C28.4145 221.806 17.0165 226.19 12.6016 235.83 6.97263 248.12 13.7896 261.946 26.2615 265.375L110.473 288.534C123.697 292.171 134.358 301.95 139.121 314.811L144.49 329.312C148.319 339.656 138.835 350.001 128.195 347.075L115.738 343.646C105.513 340.839 94.115 345.218 89.7052 354.862 84.0762 367.147 90.8932 380.979 103.36 384.408L139.074 395.557C170.088 405.237 194.082 429.979 202.813 461.278L202.808 461.247C194.082 429.963 201.791 396.392 223.295 372.06L247.285 344.901C254.942 336.819 256.099 323.942 248.82 315.517 240.442 305.82 225.786 305.665 217.2 314.744L207.54 324.943C199.95 332.954 186.482 329.016 184.401 318.178L181.491 302.993C178.907 289.525 182.969 275.642 192.396 265.686L252.462 202.274C261.354 192.884 260.031 177.527 248.857 169.927Z" fill="#96CD82" transform="matrix(1 0 -0 1.00148 416.212 19)"/><path d="M77.2385 11.1386C52.7928 17.9608 41.732 51.7967 53.5347 83.6664L59.7498 100.455C62.8938 108.942 55.1118 117.425 46.3856 115.022L40.793 113.487C30.5675 110.675 19.1747 115.059 14.7598 124.698 9.13083 136.988 15.9478 150.814 28.4145 154.244L59.1532 162.7C75.6769 167.245 89.0048 179.467 94.9554 195.54L105.103 222.937C108.543 232.219 100.029 241.5 90.4834 238.875L38.64 224.618C28.4145 221.806 17.0165 226.19 12.6016 235.83 6.97263 248.12 13.7896 261.946 26.2615 265.375L110.473 288.534C123.697 292.171 134.358 301.95 139.121 314.811L144.49 329.312C148.319 339.656 138.835 350.001 128.195 347.075L115.738 343.646C105.513 340.839 94.115 345.218 89.7052 354.862 84.0762 367.147 90.8932 380.979 103.36 384.408L139.074 395.557C170.072 405.237 194.061 429.958 202.803 461.236Z" fill="#7DBE81" transform="matrix(1 0 -0 1.00148 416.212 19)"/><path d="M434.472 258.714C430.046 249.074 418.648 244.701 408.423 247.523L356.59 261.821C347.044 264.457 338.531 255.186 341.96 245.899L352.082 218.491C358.017 202.414 371.334 190.175 387.858 185.62L417.424 177.46C428.158 174.497 435.81 164.075 433.932 153.097 431.774 140.469 419.307 132.76 407.266 136.091L400.589 137.933C391.863 140.34 384.076 131.863 387.209 123.37L393.414 106.576C405.186 74.7016 394.099 40.8708 369.648 34.0746 345.197 27.2732 318.24 50.5204 311.864 83.905L308.508 101.487C306.811 110.379 295.761 113.617 289.535 107.054L285.546 102.846C278.246 95.1525 266.226 93.0151 257.463 98.9865 246.294 106.597 244.981 121.959 253.878 131.339L275.818 154.461C287.621 166.897 292.705 184.251 289.494 201.086L284.015 229.786C282.158 239.508 270.075 243.051 263.264 235.871L226.253 196.863C218.953 189.174 206.933 187.031 198.17 193.003 187 200.614 185.688 215.975 194.585 225.355L254.703 288.716C264.14 298.661 268.213 312.544 265.64 326.012L262.74 341.202C260.67 352.04 247.207 355.988 239.612 347.983L230.719 338.614C223.42 330.92 211.399 328.782 202.637 334.754 191.467 342.365 190.155 357.721 199.052 367.106L223.861 395.111C245.401 419.432 253.157 453.014 244.452 484.318L244.457 484.287C253.157 452.998 277.115 428.246 308.103 418.529L342.676 407.686C353.41 404.724 361.057 394.301 359.179 383.324 357.021 370.696 344.554 362.987 332.518 366.317L318.972 370.053C308.337 372.989 298.837 362.655 302.661 352.305L308.02 337.799C312.772 324.938 323.423 315.148 336.647 311.501L420.843 288.27C433.304 284.83 440.106 270.999 434.472 258.714Z" fill="#96CD82" transform="matrix(1 0 -0 1.00148 416.212 19)"/><path d="M369.648 34.0746C345.197 27.2732 318.235 50.5256 311.864 83.905L308.508 101.487C306.806 110.379 295.761 113.617 289.53 107.054L285.546 102.846C278.246 95.1577 266.221 93.0151 257.458 98.9865 246.288 106.597 244.976 121.959 253.878 131.339L275.818 154.461C287.616 166.897 292.705 184.251 289.489 201.086L284.01 229.786C282.153 239.508 270.075 243.051 263.258 235.871L226.253 196.868C218.948 189.174 206.927 187.031 198.165 193.003 186.995 200.614 185.683 215.975 194.585 225.355L254.698 288.716C264.14 298.661 268.208 312.544 265.64 326.017L262.74 341.202C260.67 352.04 247.202 355.988 239.606 347.988L230.719 338.614C223.415 330.92 211.394 328.782 202.632 334.754 191.462 342.365 190.149 357.726 199.052 367.106L223.856 395.111C245.391 419.421 253.142 452.988 244.457 484.276Z" fill="#7DBE81" transform="matrix(1 0 -0 1.00148 416.212 19)"/><path d="M444.018 254.579C437.74 240.888 421.512 233.739 406.27 237.941L354.437 252.234C353.576 252.473 352.839 252.26 352.242 251.606 351.641 250.952 351.49 250.2 351.796 249.365L361.923 221.957C363.827 216.8 361.192 211.067 356.03 209.163 350.868 207.254 345.14 209.895 343.231 215.057L333.109 242.46C330.219 250.278 331.926 258.947 337.566 265.085 343.2 271.222 351.698 273.655 359.729 271.44L411.567 257.142C417.388 255.528 423.691 258.06 425.912 262.885 427.359 266.044 427.369 269.474 425.943 272.54 424.537 275.559 421.886 277.8 418.674 278.687L334.479 301.909C318.209 306.396 305.006 318.526 299.159 334.359L293.8 348.865C290.729 357.171 292.544 366.385 298.537 372.906 304.529 379.433 313.561 382.021 322.095 379.666L335.651 375.931C338.769 375.069 341.996 375.547 344.735 377.285 347.475 379.023 349.285 381.772 349.84 385.02 350.785 390.55 346.598 396.418 340.502 398.099 340.388 398.13 340.279 398.161 340.17 398.197L305.592 409.035C286.345 415.074 269.629 426.249 256.96 441.014 253.728 421.823 245.178 403.619 231.793 388.511L206.99 360.502C206.912 360.419 206.839 360.33 206.761 360.253 204.468 357.835 203.358 354.551 203.711 351.231 204.074 347.874 205.853 344.943 208.722 342.987 213.117 339.999 219.814 341.088 223.975 345.477L232.862 354.847C238.963 361.275 248.026 363.718 256.53 361.223 265.027 358.733 271.341 351.781 273.007 343.08L275.907 327.89C279.071 311.314 274.029 294.111 262.413 281.868L202.3 218.502C200.007 216.089 198.896 212.8 199.254 209.485 199.612 206.123 201.392 203.197 204.266 201.241 208.655 198.248 215.353 199.343 219.513 203.726L256.519 242.735C262.257 248.779 270.791 251.077 278.786 248.737 286.781 246.392 292.721 239.85 294.288 231.664L299.766 202.964C303.574 183.032 297.509 162.342 283.538 147.618L261.609 124.485C259.315 122.073 258.205 118.784 258.563 115.469 258.921 112.107 260.701 109.181 263.57 107.225 267.964 104.237 274.661 105.326 278.822 109.71L282.812 113.917C288.275 119.676 296.409 121.871 304.025 119.635 311.647 117.404 317.307 111.168 318.796 103.365L322.157 85.7831C325.306 69.2801 334.313 55.008 346.245 47.6048 351.231 44.5076 358.966 41.3222 367.49 43.6879 376.014 46.0588 380.989 52.7876 383.661 58.0067 390.052 70.5097 390.395 87.3862 384.574 103.147L378.369 119.941C375.614 127.391 377.243 135.65 382.618 141.497 387.987 147.344 396.076 149.663 403.738 147.556L410.42 145.709C413.543 144.848 416.77 145.331 419.51 147.069 422.249 148.807 424.059 151.551 424.615 154.799 425.559 160.329 421.372 166.197 415.276 167.878L385.71 176.033C380.403 177.496 377.29 182.98 378.753 188.287 380.216 193.589 385.7 196.702 391.007 195.239L420.573 187.083C436.516 182.689 446.912 167.032 444.251 151.442 442.762 142.7 437.636 134.975 430.192 130.249 422.747 125.523 413.611 124.164 405.118 126.509L398.441 128.35C398.239 128.407 397.762 128.537 397.29 128.024 396.812 127.505 396.983 127.043 397.056 126.846L403.261 110.052C410.981 89.1553 410.28 66.3074 401.398 48.9381 395.054 36.5337 384.906 27.8542 372.828 24.4924 360.756 21.1358 347.578 23.3303 335.739 30.6765 319.159 40.9642 306.765 60.1701 302.588 82.0477L299.227 99.6298C299.19 99.8373 299.097 100.32 298.422 100.517 297.748 100.714 297.411 100.356 297.265 100.206L293.276 96.0034C282.397 84.5328 264.804 82.2812 252.353 90.7635 244.691 95.9878 239.731 104.216 238.75 113.347 237.775 122.483 240.836 131.541 247.155 138.202L269.095 161.33C278.656 171.411 282.812 185.579 280.202 199.228L274.724 227.923C274.558 228.8 274.039 229.365 273.188 229.614 272.332 229.869 271.59 229.666 270.983 229.023L255.98 213.205 259.725 209.257C266.044 202.595 269.105 193.537 268.125 184.401 267.149 175.27 262.19 167.042 254.522 161.818 242.081 153.336 224.483 155.587 213.599 167.058L200.105 181.283C197.641 182.118 195.265 183.27 193.055 184.775 186.954 188.93 182.575 194.995 180.547 201.9 180.536 201.916 180.521 201.926 180.505 201.942L176.593 206.061C175.981 206.709 175.239 206.907 174.388 206.658 173.538 206.409 173.019 205.838 172.853 204.966L167.374 176.272C164.765 162.617 168.92 148.449 178.487 138.368L200.422 115.246C206.741 108.584 209.807 99.526 208.826 90.39 207.846 81.2592 202.886 73.0259 195.223 67.8016 182.772 59.3192 165.18 61.576 154.301 73.0414L150.311 77.2489C150.166 77.3993 149.823 77.7573 149.154 77.5602 148.48 77.363 148.386 76.8753 148.35 76.673L144.993 59.091C140.812 37.2081 128.418 18.0023 111.837 7.71451 99.9981 0.368346 86.8259-1.82617 74.7483 1.53564 62.6707 4.89744 52.5282 13.5717 46.1833 25.9762 37.2963 43.3507 36.5959 66.1933 44.3156 87.0904L50.5204 103.884C50.5931 104.081 50.7643 104.543 50.287 105.062 49.8149 105.58 49.3376 105.451 49.1353 105.394L42.4635 103.552C33.9708 101.202 24.8296 102.566 17.3849 107.292 9.94534 112.019 4.81962 119.744 3.32549 128.485 0.66406 144.075 11.0659 159.732 27.0034 164.127L56.5696 172.282C69.9701 175.976 80.8389 185.963 85.6586 199L95.7803 226.408C96.0864 227.238 95.9411 227.996 95.3393 228.649 94.7375 229.303 94.0008 229.516 93.1448 229.277L41.3066 214.984C26.0747 210.782 9.84158 217.931 3.55895 231.627-0.311278 240.058-0.306091 249.666 3.56932 257.987 7.44992 266.319 14.7494 272.493 23.6001 274.936L67.9209 287.159C68.8029 287.403 69.6952 287.517 70.572 287.517 74.9454 287.517 78.9505 284.622 80.1697 280.202 81.6327 274.9 78.5199 269.416 73.2178 267.953L28.897 255.731C25.6908 254.843 23.0398 252.602 21.6338 249.578 20.2071 246.517 20.2175 243.088 21.665 239.933 23.8854 235.103 30.1888 232.577 36.0097 234.185L87.8479 248.483C95.8789 250.698 104.372 248.265 110.011 242.128 115.65 235.99 117.357 227.321 114.467 219.503L104.346 192.1C97.3107 173.06 81.4304 158.472 61.8665 153.076L32.3003 144.921C26.2044 143.24 22.0177 137.372 22.962 131.842 23.5171 128.594 25.3277 125.845 28.0669 124.107 30.8062 122.369 34.0331 121.891 37.1614 122.753L43.8383 124.599C51.4958 126.706 59.5838 124.387 64.9586 118.54 70.3333 112.688 71.9623 104.429 69.2075 96.9839L63.0027 80.1904C57.1818 64.4242 57.5242 47.5529 63.9158 35.0499 66.5928 29.8256 71.5629 23.102 80.0867 20.7311 88.6105 18.3602 96.3406 21.5508 101.331 24.6429 113.264 32.0461 122.27 46.3182 125.419 62.8263L128.781 80.4083C130.27 88.211 135.93 94.4418 143.551 96.6778 151.172 98.9086 159.302 96.7141 164.765 90.9555L168.754 86.7532C172.915 82.3642 179.618 81.2747 184.002 84.2682 186.876 86.2241 188.655 89.1501 189.013 92.5119 189.371 95.827 188.261 99.1162 185.968 101.529L164.028 124.657C150.062 139.375 143.997 160.07 147.8 180.007L153.284 208.702C154.845 216.888 160.786 223.43 168.78 225.775 173.522 227.166 178.44 226.911 182.855 225.231 184.178 227.747 185.849 230.102 187.851 232.214L199.166 244.135 185.153 258.906C173.543 271.149 168.5 288.358 171.665 304.928L174.565 320.118C176.007 327.672 180.962 333.908 187.805 337.047 185.719 340.725 184.37 344.813 183.908 349.104 182.933 358.177 185.952 367.179 192.183 373.824L202.118 385.041C196.463 395.422 192.609 406.612 190.673 418.124 177.994 403.323 161.258 392.122 141.974 386.073L107.401 375.235C107.292 375.199 107.183 375.168 107.069 375.137 100.973 373.456 96.7868 367.588 97.731 362.058 98.2861 358.81 100.097 356.061 102.836 354.323 105.575 352.585 108.797 352.102 111.93 352.969L125.476 356.709C134.005 359.054 143.043 356.471 149.035 349.949 155.027 343.423 156.843 334.209 153.771 325.903L148.412 311.397C142.565 295.569 129.362 283.44 113.093 278.947 107.79 277.489 102.307 280.602 100.839 285.904 99.3807 291.206 102.494 296.69 107.796 298.158 117.897 300.944 126.094 308.471 129.725 318.298L135.084 332.803C135.743 334.593 134.913 335.869 134.363 336.471 133.808 337.073 132.61 338.012 130.768 337.498L117.233 333.768C108.735 331.418 99.5986 332.782 92.1539 337.503 84.7144 342.235 79.5886 349.96 78.0945 358.701 75.4383 374.229 85.752 389.824 101.591 394.291L136.013 405.082C163.862 413.813 185.164 435.795 193.013 463.893 193.029 463.939 193.039 463.981 193.055 464.028L216.639 548.825 183.67 667.36C182.196 672.662 185.299 678.151 190.596 679.624 191.488 679.878 192.385 679.992 193.273 679.992 197.631 679.992 201.636 677.108 202.86 672.698L226.979 585.992 244.711 649.741C245.936 654.151 249.941 657.036 254.304 657.036 255.186 657.036 256.089 656.916 256.981 656.667 262.278 655.194 265.38 649.705 263.907 644.403L237.318 548.825 254.522 486.984C254.532 486.948 254.543 486.907 254.553 486.865 262.402 458.762 283.709 436.775 311.558 428.039L345.986 417.253C361.825 412.786 372.133 397.191 369.482 381.663 367.988 372.922 362.862 365.192 355.417 360.465 347.978 355.739 338.837 354.375 330.349 356.725L316.803 360.465C314.972 360.974 313.768 360.035 313.213 359.433 312.658 358.831 311.828 357.555 312.492 355.765L317.846 341.259C321.478 331.433 329.675 323.901 339.776 321.115L423.976 297.893C432.827 295.45 440.127 289.276 444.007 280.949 447.883 272.623 447.888 263.009 444.018 254.579ZM223.435 322.687 223.596 322.515C227.757 318.132 234.46 317.037 238.849 320.03 241.718 321.986 243.497 324.912 243.861 328.274 244.135 330.884 243.497 333.467 242.102 335.631L238.429 331.76C234.211 327.314 228.981 324.274 223.435 322.687ZM243.305 178.279C246.174 180.235 247.954 183.166 248.317 186.523 248.67 189.843 247.56 193.127 245.266 195.545L242.247 198.73 233.972 190.015C231.441 187.343 228.535 185.195 225.417 183.54L228.053 180.764C232.214 176.381 238.911 175.286 243.305 178.279ZM199.612 272.617 212.899 258.615 247.964 295.574C251.378 299.175 253.863 303.465 255.341 308.072 253.77 306.401 252.006 304.887 250.065 303.564 237.609 295.081 220.022 297.338 209.143 308.804L200.25 318.178C198.943 319.553 197.428 319.382 196.645 319.148 195.861 318.915 194.492 318.251 194.134 316.383L191.234 301.193C189.268 290.9 192.401 280.218 199.612 272.617ZM235.363 481.527C235.352 481.558 235.342 481.589 235.337 481.625L226.979 511.658 212.24 458.663C212.229 458.632 212.224 458.601 212.214 458.57 206.927 439.447 208.499 419.121 216.385 401.149L216.883 401.72C236.239 423.572 243.145 453.397 235.363 481.527Z" transform="matrix(1 0 -0 1.00148 416.212 19)"/></g></g></g></g></svg>