<svg id="Layer_1" enable-background="new 0 0 512 512" height="512" viewBox="0 0 512 512" width="512" xmlns="http://www.w3.org/2000/svg"><g><g><path d="m438.109 0h-346.328c-25.243 0-45.781 20.538-45.781 45.782v420.436c0 25.244 20.538 45.782 45.781 45.782h346.328c15.379 0 27.891-12.512 27.891-27.891v-456.218c0-15.379-12.512-27.891-27.891-27.891zm-372.109 466.218c0-14.216 11.565-25.782 25.781-25.782h314.217v51.564h-314.217c-14.216 0-25.781-11.565-25.781-25.782zm380 17.891c0 4.351-3.54 7.891-7.891 7.891h-12.111v-51.563h12.111c2.739 0 5.388-.397 7.891-1.136zm0-71.563c0 4.351-3.54 7.891-7.891 7.891h-332.108v-155.222c0-5.523-4.477-10-10-10s-10 4.477-10 10v155.591c-7.348.93-14.16 3.602-20.001 7.597v-382.621c0-12.229 8.56-22.489 20.001-25.121v154.553c0 5.523 4.477 10 10 10s10-4.477 10-10v-155.214h332.108c4.351 0 7.891 3.54 7.891 7.891z"/><path d="m346.91 107.855c-7.56 0-14.992 1.438-21.927 4.21-10.863-16.081-29.144-26.029-48.982-26.029s-38.119 9.948-48.982 26.029c-6.935-2.771-14.367-4.21-21.927-4.21-32.583 0-59.091 26.508-59.091 59.091 0 25.036 15.346 46.751 38.182 55.297v116.701c0 8.521 6.933 15.455 15.454 15.455h152.728c8.521 0 15.454-6.933 15.454-15.455v-116.7c22.835-8.546 38.181-30.262 38.181-55.297 0-32.583-26.507-59.092-59.09-59.092zm-142.727 226.545v-20.002h143.636v20.002zm151.423-129.333c-4.555 1.033-7.787 5.082-7.787 9.752v79.579h-143.636v-79.579c0-4.67-3.232-8.719-7.787-9.752-17.896-4.061-30.395-19.737-30.395-38.12 0-21.555 17.536-39.091 39.091-39.091 7.341 0 14.496 2.047 20.689 5.92 2.458 1.538 5.463 1.933 8.237 1.082 2.772-.851 5.039-2.864 6.211-5.516 6.259-14.157 20.3-23.305 35.771-23.305s29.512 9.147 35.771 23.305c1.173 2.652 3.439 4.665 6.211 5.516 2.773.852 5.778.456 8.237-1.082 6.194-3.873 13.348-5.92 20.69-5.92 21.554 0 39.09 17.536 39.09 39.091.001 18.383-12.498 34.059-30.393 38.12z"/><path d="m96.001 210.215c-5.523 0-10 4.48-10 10.003s4.477 10 10 10 10-4.477 10-10v-.007c0-5.523-4.477-9.996-10-9.996z"/></g></g></svg>